<?xml version="1.0" encoding="utf-8"?>
<!-- Generator: Adobe Illustrator 22.0.0, SVG Export Plug-In . SVG Version: 6.00 Build 0)  -->
<svg version="1.1" id="Capa_1" xmlns="http://www.w3.org/2000/svg" xmlns:xlink="http://www.w3.org/1999/xlink" x="0px" y="0px"
	 viewBox="0 0 455.7 455.7" style="enable-background:new 0 0 455.7 455.7;" xml:space="preserve">
<style type="text/css">
	.st0{fill:#FFFFFF;}
</style>
<g>
	<g>
		<path class="st0" d="M0,455.7l31.9-113.2C11.4,307.7,0.6,268,0.6,227.3C0.6,102,102.6,0,227.9,0s227.3,102,227.3,227.3
			s-102,227.3-227.3,227.3c-39.1,0-77.3-10-111.1-29L0,455.7z M122.7,384.3l7,4.2c29.5,18,63.5,27.5,98.2,27.5
			c104.1,0,188.8-84.7,188.8-188.8S332,38.6,227.9,38.6S39.1,123.2,39.1,227.3c0,36.3,10.3,71.5,29.8,101.8l4.7,7.3l-18.4,65.2
			L122.7,384.3z"/>
		<path class="st0" d="M164.1,121.5l-14.8-0.8c-4.6-0.3-9.2,1.3-12.7,4.3c-7.2,6.2-18.6,18.2-22.1,33.9
			c-5.2,23.3,2.9,51.9,23.8,80.5c20.9,28.6,60,74.3,129,93.8c22.2,6.3,39.7,2,53.2-6.6c10.7-6.8,18.1-17.8,20.7-30.2l2.4-11
			c0.7-3.5-1-7-4.3-8.5l-49.9-23c-3.2-1.5-7.1-0.5-9.3,2.3l-19.6,25.4c-1.5,1.9-4,2.7-6.3,1.9c-13.4-4.7-58.3-23.5-82.9-71
			c-1.1-2.1-0.8-4.6,0.7-6.3l18.7-21.6c1.9-2.2,2.4-5.3,1.2-8l-21.5-50.3C169.5,123.5,167,121.7,164.1,121.5z"/>
	</g>
</g>
</svg>
